<?xml version="1.0" encoding="utf-8"?>
<!-- Generator: Adobe Illustrator 19.0.0, SVG Export Plug-In . SVG Version: 6.00 Build 0)  -->
<svg version="1.1" id="Layer_1" xmlns="http://www.w3.org/2000/svg" xmlns:xlink="http://www.w3.org/1999/xlink" x="0px" y="0px"
	 viewBox="0 0 600 600" style="enable-background:new 0 0 600 600;" xml:space="preserve">
<style type="text/css">
	.st0{fill:#9A1E20;}
	.st1{fill:none;stroke:#C32026;stroke-width:52;stroke-miterlimit:10;}
	.st2{fill:none;stroke:#FFFFFF;stroke-width:23;stroke-miterlimit:10;}
	.st3{fill:#FFFFFF;}
	.st4{fill:#C32026;}
	.st5{fill:none;stroke:#FFFFFF;stroke-width:24;stroke-miterlimit:10;}
</style>
<g id="XMLID_489_">
	<rect id="XMLID_13_" x="0.5" y="0.4" class="st0" width="599.5" height="599.5"/>
	<g id="XMLID_16_">
		<g id="XMLID_477_">
			<path id="XMLID_488_" class="st1" d="M463.6,96.4H369c-20.3,0-39.4,8.4-51.6,22.8l-17.2,20.2L283,119.2
				c-12.2-14.4-31.3-22.8-51.6-22.8h-94.6c-28.9,0-52.3,20.8-52.3,46.5v109.7c0,25.7,23.4,46.5,52.3,46.5h94.6
				c20.3,0,39.4-8.4,51.6-22.8l17.2-20.2l17.2,20.2c12.2,14.4,31.3,22.8,51.6,22.8h94.6c28.9,0,52.3-20.8,52.3-46.5V142.9
				C515.9,117.2,492.5,96.4,463.6,96.4z"/>
			<path id="XMLID_487_" class="st2" d="M463.6,96.4H369c-20.3,0-39.4,8.4-51.6,22.8l-17.2,20.2L283,119.2
				c-12.2-14.4-31.3-22.8-51.6-22.8h-94.6c-28.9,0-52.3,20.8-52.3,46.5v109.7c0,25.7,23.4,46.5,52.3,46.5h94.6
				c20.3,0,39.4-8.4,51.6-22.8l17.2-20.2l17.2,20.2c12.2,14.4,31.3,22.8,51.6,22.8h94.6c28.9,0,52.3-20.8,52.3-46.5V142.9
				C515.9,117.2,492.5,96.4,463.6,96.4z"/>
			<path id="XMLID_486_" class="st3" d="M231.4,299.1h-94.6c-28.9,0-52.3-20.8-52.3-46.5V142.9c0-25.7,23.4-46.5,52.3-46.5h94.6
				c20.3,0,39.4,8.4,51.6,22.8l66.9,78.5L283,276.3C270.8,290.7,251.7,299.1,231.4,299.1z"/>
			<path id="XMLID_485_" class="st4" d="M369,96.4h94.6c28.9,0,52.3,20.8,52.3,46.5v109.7c0,25.7-23.4,46.5-52.3,46.5H369
				c-20.3,0-39.4-8.4-51.6-22.8l-44.1-51.8c-13.5-15.8-13.5-37.7,0-53.5l44.1-51.8C329.6,104.9,348.7,96.4,369,96.4z"/>
			<g id="XMLID_482_">
				<path id="XMLID_483_" class="st3" d="M419.1,248.6c-29.4,0-51.4-21.8-51.4-50.7c0-29.1,22-50.9,51.4-50.9
					c25.3,0,45,16.7,48.9,41.2h-27c-3.3-9.9-11.7-16.4-21.9-16.4c-13.7,0-23.7,11-23.7,26c0,14.9,10,25.8,23.7,25.8
					c10.7,0,19.2-7,21.9-17.7h27.2C464.6,231.3,444.9,248.6,419.1,248.6L419.1,248.6z"/>
			</g>
			<g id="XMLID_479_">
				<path id="XMLID_480_" class="st4" d="M185.5,248.6c-29.4,0-51.4-21.8-51.4-50.7c0-29.1,22-50.9,51.4-50.9
					c25.3,0,45,16.7,48.9,41.2h-27c-3.3-9.9-11.7-16.4-21.9-16.4c-13.7,0-23.7,11-23.7,26c0,14.9,10,25.8,23.7,25.8
					c10.7,0,19.2-7,21.9-17.7h27.2C231,231.3,211.3,248.6,185.5,248.6L185.5,248.6z"/>
			</g>
			<path id="XMLID_478_" class="st5" d="M304,160.8l22.7,26.6c4.8,5.6,4.8,13.4,0,19.1L304,233.2"/>
		</g>
		<g id="XMLID_17_">
			<g id="XMLID_461_">
				<path id="XMLID_475_" class="st3" d="M106.3,429.8c-24.5,0-42.7-18.1-42.7-42.1c0-24.2,18.3-42.3,42.7-42.3
					c21.1,0,37.4,13.9,40.6,34.3h-22.4c-2.8-8.2-9.7-13.6-18.2-13.6c-11.4,0-19.7,9.2-19.7,21.6c0,12.4,8.3,21.4,19.7,21.4
					c8.9,0,15.9-5.8,18.2-14.7h22.6C144.1,415.5,127.7,429.8,106.3,429.8L106.3,429.8z"/>
				<path id="XMLID_472_" class="st3" d="M187.9,403.2h-8v24.6h-22.1v-80.4h34.8c17.3,0,29.9,11.6,29.9,28.4
					c0,9.9-4.8,17.9-12.8,22.7l16,29.2H201L187.9,403.2z M179.9,384.5H190c6.2,0,9.8-3.7,9.8-8.8c0-5-3.6-8.7-9.8-8.7h-10.1V384.5z"
					/>
				<path id="XMLID_470_" class="st3" d="M273.7,396.4v31.4h-22.6v-31.5l-27.9-48.9h24.6l14.7,29l14.7-29h24.6L273.7,396.4z"/>
				<path id="XMLID_467_" class="st3" d="M374.3,376.5c0,16.9-12.7,29.1-29.8,29.1h-12v22.2h-22.2v-80.4h34.2
					C361.7,347.4,374.3,359.6,374.3,376.5z M351.6,376.5c0-5.7-3.8-9.8-9.7-9.8h-9.4v19.5h9.4C347.7,386.3,351.6,382.2,351.6,376.5z
					"/>
				<path id="XMLID_465_" class="st3" d="M444.7,367.4h-21.8v60.4h-22.2v-60.4h-21.8v-19.9h65.9V367.4z"/>
				<path id="XMLID_462_" class="st3" d="M492.6,429.8c-25.8,0-44.3-17.7-44.3-42.2c0-24.6,18.4-42.2,44.3-42.2
					c25.8,0,44.1,17.6,44.1,42.2C536.7,412.2,518.3,429.8,492.6,429.8L492.6,429.8z M492.6,409.2c12.2,0,21.1-9,21.1-21.6
					c0-12.6-8.9-21.6-21.1-21.6c-12.2,0-21.2,9.1-21.2,21.6C471.3,400.1,480.3,409.2,492.6,409.2L492.6,409.2z"/>
			</g>
			<g id="XMLID_441_">
				<path id="XMLID_459_" class="st3" d="M93.6,504c-15.5,0-27.1-11.5-27.1-26.7c0-15.3,11.6-26.8,27.1-26.8
					c13.4,0,23.7,8.8,25.8,21.7h-14.2c-1.7-5.2-6.2-8.6-11.5-8.6c-7.2,0-12.5,5.8-12.5,13.7c0,7.9,5.3,13.6,12.5,13.6
					c5.7,0,10.1-3.7,11.5-9.3h14.4C117.5,494.9,107.1,504,93.6,504L93.6,504z"/>
				<path id="XMLID_457_" class="st3" d="M125.7,483v-31.2H140v31c0,5,3.2,8.2,7.9,8.2c4.7,0,7.9-3.2,7.9-8.2v-31h14.3V483
					c0,12.5-9.3,21-22.2,21C134.9,504,125.7,495.5,125.7,483z"/>
				<path id="XMLID_454_" class="st3" d="M198.6,487.1h-5.1v15.6h-14v-50.9h22.1c11,0,18.9,7.4,18.9,18c0,6.3-3.1,11.4-8.1,14.4
					l10.1,18.5h-15.7L198.6,487.1z M193.5,475.3h6.4c3.9,0,6.2-2.4,6.2-5.5c0-3.2-2.3-5.5-6.2-5.5h-6.4V475.3z"/>
				<path id="XMLID_451_" class="st3" d="M247.8,487.1h-5.1v15.6h-14v-50.9h22.1c11,0,18.9,7.4,18.9,18c0,6.3-3.1,11.4-8.1,14.4
					l10.1,18.5h-15.7L247.8,487.1z M242.7,475.3h6.4c3.9,0,6.2-2.4,6.2-5.5c0-3.2-2.3-5.5-6.2-5.5h-6.4V475.3z"/>
				<path id="XMLID_449_" class="st3" d="M311.1,490.5v12.2h-33.2v-50.9h32.6v12.1h-18.6v7.5h16.7v11.5h-16.7v7.6H311.1z"/>
				<path id="XMLID_447_" class="st3" d="M364.6,451.8v50.9H353l-20.2-27.6v27.6h-13.6v-50.9h12.3l19.6,26.7v-26.7H364.6z"/>
				<path id="XMLID_444_" class="st3" d="M398.9,504c-15.5,0-27.1-11.5-27.1-26.7c0-15.3,11.6-26.8,27.1-26.8
					c13.4,0,23.7,8.8,25.8,21.7h-14.2c-1.7-5.2-6.2-8.6-11.5-8.6c-7.2,0-12.5,5.8-12.5,13.7c0,7.9,5.3,13.6,12.5,13.6
					c5.7,0,10.1-3.7,11.5-9.3h14.4C422.9,494.9,412.5,504,398.9,504L398.9,504z"/>
				<path id="XMLID_442_" class="st3" d="M455.6,482.8v19.9h-14.3v-20l-17.7-31h15.6l9.3,18.4l9.3-18.4h15.6L455.6,482.8z"/>
			</g>
			<g id="XMLID_1_">
				<path id="XMLID_2_" class="st3" d="M518,476.9c-2,0-3.5,1.5-3.5,3.6c0,2,1.5,3.6,3.5,3.6c2,0,3.5-1.5,3.5-3.6
					C521.4,478.5,520,476.9,518,476.9z"/>
				<path id="XMLID_14_" class="st3" d="M524,452.7h-23.3c-5,0-9.7,2.1-12.7,5.6l-10.9,12.8c-3.3,3.9-3.3,9.3,0,13.2l10.9,12.8
					c3,3.5,7.7,5.6,12.7,5.6H524c7.1,0,12.9-5.1,12.9-11.5v-27C536.9,457.9,531.1,452.7,524,452.7z M495.6,488.2
					c-1.7,0-3.1-1.4-3.1-3.1s1.4-3.1,3.1-3.1s3.1,1.4,3.1,3.1S497.3,488.2,495.6,488.2z M501.3,466.2h5.3v4.5h-5.3V466.2z
					 M506.6,488.2h-5.3v-15.5h5.3V488.2z M526.4,488.2h-4l-0.5-1.2c-1.3,1.1-2.9,1.7-4.7,1.7c-4.8,0-8.2-3.5-8.2-8.3
					c0-4.8,3.4-8.3,8.2-8.3c1.4,0,2.7,0.4,3.9,1.1v-6.2h5.3V488.2z"/>
			</g>
		</g>
	</g>
</g>
</svg>
